<?xml version="1.0" encoding="UTF-8"?>
<svg xmlns="http://www.w3.org/2000/svg" viewBox="0 0 1600 900" width="1600" height="900">
  <defs>
    <style>
      .box { fill: #3a3a3a; stroke: #888888; stroke-width: 2; }
      .box-main { fill: #4a5568; stroke: #cbd5e0; stroke-width: 2; }
      .box-route { fill: #2d3748; stroke: #a0aec0; stroke-width: 2; }
      .box-file { fill: #1a202c; stroke: #718096; stroke-width: 1.5; }
      .text { fill: #ffffff; font-family: 'Courier New', monospace; font-size: 11px; text-anchor: start; }
      .text-center { fill: #ffffff; font-family: 'Courier New', monospace; font-size: 11px; text-anchor: middle; }
      .title { fill: #e2e8f0; font-family: 'Courier New', monospace; font-size: 13px; font-weight: bold; text-anchor: middle; }
      .arrow { stroke: #718096; stroke-width: 1.5; fill: none; }
    </style>
  </defs>

  <!-- Background -->
  <rect width="1600" height="900" fill="#0f1419"/>

  <!-- src/app Section -->
  <rect class="box-main" x="20" y="20" width="550" height="850" rx="8"/>
  <text class="title" x="295" y="45">src/app</text>

  <!-- Root files -->
  <rect class="box-file" x="40" y="70" width="130" height="30" rx="4"/>
  <text class="text" x="50" y="92">layout.tsx</text>

  <rect class="box-file" x="190" y="70" width="130" height="30" rx="4"/>
  <text class="text" x="200" y="92">globals.css</text>

  <!-- Auth Routes -->
  <rect class="box-route" x="40" y="120" width="230" height="40" rx="5"/>
  <text class="text" x="50" y="145">(auth) Protected Routes</text>

  <!-- Protected Routes -->
  <rect class="box-route" x="40" y="180" width="250" height="40" rx="5"/>
  <text class="text" x="50" y="205">(protected) Authenticated Routes</text>

  <path class="arrow" d="M 165 220 L 165 245" marker-end="url(#arrowhead)"/>

  <!-- Main pages -->
  <rect class="box-file" x="60" y="245" width="180" height="28" rx="4"/>
  <text class="text" x="70" y="263">page.tsx - Dashboard</text>

  <rect class="box-file" x="60" y="285" width="180" height="28" rx="4"/>
  <text class="text" x="70" y="303">kalendarz/ - Calendar</text>

  <rect class="box-file" x="60" y="325" width="180" height="28" rx="4"/>
  <text class="text" x="70" y="343">klienci/ - Customers</text>

  <rect class="box-file" x="60" y="365" width="180" height="28" rx="4"/>
  <text class="text" x="70" y="383">raporty/ - Reports</text>

  <rect class="box-file" x="60" y="405" width="180" height="28" rx="4"/>
  <text class="text" x="70" y="423">uslugi/ - Services</text>

  <rect class="box-file" x="60" y="445" width="180" height="28" rx="4"/>
  <text class="text" x="70" y="463">ustawienia/ - Settings</text>

  <path class="arrow" d="M 240 459 L 295 459 L 295 490" marker-end="url(#arrowhead)"/>

  <!-- Settings sub-routes -->
  <rect class="box-file" x="280" y="490" width="200" height="26" rx="4"/>
  <text class="text" x="290" y="507">bufory/ - Buffers</text>

  <rect class="box-file" x="280" y="525" width="230" height="26" rx="4"/>
  <text class="text" x="290" y="542">godziny-pracy/ - Working Hours</text>

  <rect class="box-file" x="280" y="560" width="210" height="26" rx="4"/>
  <text class="text" x="290" y="577">integracje/ - Integrations</text>

  <rect class="box-file" x="280" y="595" width="230" height="26" rx="4"/>
  <text class="text" x="290" y="612">powiadomienia/ - Notifications</text>

  <rect class="box-file" x="280" y="630" width="230" height="26" rx="4"/>
  <text class="text" x="290" y="647">profil-salonu/ - Salon Profile</text>

  <rect class="box-file" x="280" y="665" width="210" height="26" rx="4"/>
  <text class="text" x="290" y="682">prywatnosc/ - Privacy</text>

  <rect class="box-file" x="280" y="700" width="230" height="26" rx="4"/>
  <text class="text" x="290" y="717">swieta-wyjatki/ - Holidays</text>

  <rect class="box-file" x="280" y="735" width="220" height="26" rx="4"/>
  <text class="text" x="290" y="752">zespol-roles/ - Team Roles</text>

  <!-- src/components Section -->
  <rect class="box-main" x="600" y="20" width="270" height="280" rx="8"/>
  <text class="title" x="735" y="45">src/components</text>

  <rect class="box-file" x="620" y="70" width="110" height="28" rx="4"/>
  <text class="text" x="630" y="88">dashboard/</text>

  <rect class="box-file" x="620" y="110" width="110" height="28" rx="4"/>
  <text class="text" x="630" y="128">calendar/</text>

  <rect class="box-file" x="620" y="150" width="110" height="28" rx="4"/>
  <text class="text" x="630" y="168">auth/</text>

  <rect class="box-file" x="620" y="190" width="140" height="28" rx="4"/>
  <text class="text" x="630" y="208">notifications/</text>

  <rect class="box-file" x="620" y="230" width="110" height="28" rx="4"/>
  <text class="text" x="630" y="248">settings/</text>

  <rect class="box-file" x="620" y="270" width="80" height="28" rx="4"/>
  <text class="text" x="630" y="288">ui/</text>

  <!-- src/lib Section -->
  <rect class="box-main" x="900" y="20" width="330" height="430" rx="8"/>
  <text class="title" x="1065" y="45">src/lib</text>

  <rect class="box-file" x="920" y="70" width="240" height="28" rx="4"/>
  <text class="text" x="930" y="88">appointments-service.ts</text>

  <rect class="box-file" x="920" y="110" width="240" height="28" rx="4"/>
  <text class="text" x="930" y="128">customers-service.ts</text>

  <rect class="box-file" x="920" y="150" width="240" height="28" rx="4"/>
  <text class="text" x="930" y="168">employees-service.ts</text>

  <rect class="box-file" x="920" y="190" width="240" height="28" rx="4"/>
  <text class="text" x="930" y="208">services-service.ts</text>

  <rect class="box-file" x="920" y="230" width="250" height="28" rx="4"/>
  <text class="text" x="930" y="248">notifications-service.ts</text>

  <rect class="box-file" x="920" y="270" width="240" height="28" rx="4"/>
  <text class="text" x="930" y="288">dashboard-service.ts</text>

  <rect class="box-file" x="920" y="310" width="240" height="28" rx="4"/>
  <text class="text" x="930" y="328">filters-service.ts</text>

  <rect class="box-file" x="920" y="350" width="240" height="28" rx="4"/>
  <text class="text" x="930" y="368">settings-data.ts</text>

  <rect class="box-file" x="920" y="390" width="240" height="28" rx="4"/>
  <text class="text" x="930" y="408">firebase.ts</text>

  <!-- src/hooks Section -->
  <rect class="box-main" x="1260" y="20" width="310" height="180" rx="8"/>
  <text class="title" x="1415" y="45">src/hooks</text>

  <rect class="box-file" x="1280" y="70" width="150" height="28" rx="4"/>
  <text class="text" x="1290" y="88">useAuth.ts</text>

  <rect class="box-file" x="1280" y="110" width="270" height="28" rx="4"/>
  <text class="text" x="1290" y="128">usePendingTimeChanges.ts</text>

  <!-- src/contexts Section -->
  <rect class="box-main" x="900" y="480" width="310" height="180" rx="8"/>
  <text class="title" x="1055" y="505">src/contexts</text>

  <rect class="box-file" x="920" y="530" width="180" height="28" rx="4"/>
  <text class="text" x="930" y="548">auth-context.ts</text>

  <rect class="box-file" x="920" y="570" width="180" height="28" rx="4"/>
  <text class="text" x="930" y="588">theme-context.tsx</text>

  <!-- Connection arrows between main sections -->
  <path class="arrow" d="M 570 150 L 600 150" marker-end="url(#arrowhead)"/>
  <path class="arrow" d="M 870 150 L 900 150" marker-end="url(#arrowhead)"/>
  <path class="arrow" d="M 1230 150 L 1260 150" marker-end="url(#arrowhead)"/>
  <path class="arrow" d="M 1065 450 L 1065 480" marker-end="url(#arrowhead)"/>

  <!-- Arrow marker -->
  <defs>
    <marker id="arrowhead" markerWidth="10" markerHeight="10" refX="9" refY="3" orient="auto">
      <polygon points="0 0, 10 3, 0 6" fill="#718096"/>
    </marker>
  </defs>
</svg>